#!OML:ASF F:\VICON\USERDATA\INSTALL\rory3\rory3.ASF
:FULLY-SPECIFIED
:DEGREES
1047
root 1.27632 15.3514 -5.3212 -6.43598 -2.44933 2.11211
lowerback -6.88194 11.7162 9.19676
upperback -2.56225 15.2048 -5.64004
thorax 4.96811 7.77477 -8.82642
lowerneck 3.61515 -8.64833 -14.1348
upperneck 49.2688 -3.72455 -15.1389
head 18.8372 -5.65437 -5.44322
rclavicle -5.725e-014 -7.95139e-015
rhumerus 68.0799 -4.30745 -74.1485
rradius 146.74
rwrist -64.3358
rhand 0.407652 -40.3341
rfingers 7.12502
rthumb 25.9808 -68.5782
lclavicle -5.725e-014 -7.95139e-015
lhumerus -57.2306 -11.4351 80.9558
lradius 34.0027
lwrist 20.092
lhand -14.4142 -23.9851
lfingers 7.12502
lthumb 11.7297 5.66648
rfemur -15.2989 -33.4129 18.9436
rtibia 67.2503
rfoot -48.7174 -36.2244
rtoes 11.166
lfemur -34.893 -20.2948 -4.03879
ltibia 23.0294
lfoot 9.71167 -6.19672
ltoes -14.8988
1048
root 1.27776 15.3508 -5.31818 -6.34887 -2.37814 2.15563
lowerback -6.95489 11.7628 9.20781
upperback -2.64817 15.264 -5.71952
thorax 4.95503 7.8021 -8.89616
lowerneck 3.71287 -8.65734 -14.0396
upperneck 49.3363 -3.7503 -15.1484
head 18.8454 -5.64912 -5.46909
rclavicle 1.34378e-013 -1.74931e-014
rhumerus 68.0172 -4.56194 -74.1954
rradius 146.68
rwrist -64.5031
rhand 0.359062 -40.7717
rfingers 7.12502
rthumb 25.9342 -69.0226
lclavicle 1.34378e-013 -1.74931e-014
lhumerus -57.4254 -11.7001 81.0663
lradius 34.1515
lwrist 20.1311
lhand -14.002 -24.575
lfingers 7.12502
lthumb 12.1271 5.05355
rfemur -15.3544 -33.5192 18.8733
rtibia 67.2682
rfoot -48.7415 -36.0259
rtoes 11.2927
lfemur -35.0424 -20.3488 -4.06561
ltibia 23.0912
lfoot 9.71555 -6.15881
ltoes -14.8682
1049
root 1.28062 15.3536 -5.31445 -6.23344 -2.38057 2.35175
lowerback -7.10722 11.9185 9.14697
upperback -2.76996 15.4734 -5.90025
thorax 4.99329 7.90579 -8.98656
lowerneck 4.08132 -8.73683 -13.8293
upperneck 49.3925 -3.96443 -15.1418
head 18.7477 -5.69632 -5.49959
rclavicle -9.10434e-014 6.36111e-015
rhumerus 67.9362 -5.06704 -74.2243
rradius 146.525
rwrist -64.6976
rhand -0.0245653 -41.0642
rfingers 7.12502
rthumb 25.5668 -69.3683
lclavicle -9.10434e-014 6.36111e-015
lhumerus -57.5925 -12.2201 81.2259
lradius 34.2185
lwrist 20.1903
lhand -13.8544 -24.8396
lfingers 7.12502
lthumb 12.2695 4.7805
rfemur -15.5396 -33.5738 18.7044
rtibia 67.2875
rfoot -48.2363 -36.599
rtoes 10.5249
lfemur -35.1875 -20.4942 -4.17844
ltibia 23.1375
lfoot 9.72715 -5.92681
ltoes -14.8659
1050
root 1.28158 15.3553 -5.30725 -6.17908 -2.43398 2.44938
lowerback -7.09999 12.0385 9.1559
upperback -2.9162 15.6405 -6.04173
thorax 4.91521 7.98446 -9.11705
lowerneck 4.34866 -8.76223 -13.5864
upperneck 49.4626 -4.06054 -15.1643
head 18.6899 -5.69418 -5.54663
rclavicle 6.24184e-014 2.8625e-014
rhumerus 67.573 -5.22629 -74.1689
rradius 146.571
rwrist -64.5982
rhand -0.161403 -41.0563
rfingers 7.12502
rthumb 25.4358 -69.3792
lclavicle 6.24184e-014 2.8625e-014
lhumerus -57.7488 -12.6072 81.2462
lradius 34.2109
lwrist 20.116
lhand -13.7887 -24.7538
lfingers 7.12502
lthumb 12.3329 4.86249
rfemur -15.5927 -33.5657 18.6129
rtibia 67.2678
rfoot -47.8811 -36.9499
rtoes 9.95232
lfemur -35.2024 -20.5565 -4.22835
ltibia 23.1345
lfoot 9.7149 -5.80235
ltoes -15.0762
1051
root 1.28007 15.354 -5.30156 -6.2452 -2.41055 2.38107
lowerback -6.95326 11.9818 9.18438
upperback -2.93859 15.5713 -5.99572
thorax 4.78831 7.94451 -9.13377
lowerneck 4.24805 -8.68672 -13.587
upperneck 49.4918 -3.90051 -15.1954
head 18.7477 -5.63253 -5.55863
rclavicle 1.71352e-013 1.43125e-014
rhumerus 67.2552 -4.87805 -74.0454
rradius 146.795
rwrist -64.3712
rhand -0.0577687 -41.2094
rfingers 7.12502
rthumb 25.535 -69.5181
lclavicle 1.71352e-013 1.43125e-014
lhumerus -57.8614 -12.5489 81.2295
lradius 34.2835
lwrist 20.0063
lhand -13.6299 -25.0638
lfingers 7.12502
lthumb 12.486 4.54324
rfemur -15.251 -33.4957 18.5195
rtibia 67.2531
rfoot -49.3761 -34.8504
rtoes 12.2271
lfemur -35.1006 -20.5612 -4.20665
ltibia 23.1138
lfoot 9.68484 -5.87632
ltoes -15.3089
1052
root 1.27549 15.3586 -5.29941 -6.31619 -2.43446 2.24468
lowerback -6.90336 11.9351 9.25481
upperback -2.8713 15.503 -5.88946
thorax 4.80431 7.9121 -9.07717
lowerneck 4.10603 -8.63985 -13.5987
upperneck 49.454 -3.77481 -15.2584
head 18.768 -5.58887 -5.57861
rclavicle -4.69132e-014 -3.18055e-014
rhumerus 67.2569 -4.64647 -73.9551
rradius 146.9
rwrist -64.2798
rhand -0.0226066 -41.2779
rfingers 7.12502
rthumb 25.5687 -69.5818
lclavicle -4.69132e-014 -3.18055e-014
lhumerus -57.829 -12.4318 81.2705
lradius 34.296
lwrist 20.087
lhand -13.8425 -25.1612
lfingers 7.12502
lthumb 12.281 4.45823
rfemur -15.2814 -33.5715 18.7323
rtibia 67.1739
rfoot -48.011 -36.8767
rtoes 10.0107
lfemur -35.0011 -20.531 -4.08736
ltibia 23.1146
lfoot 9.63373 -5.91393
ltoes -15.3148
1053
root 1.27396 15.3593 -5.2966 -6.26806 -2.50717 2.31168
lowerback -6.91264 12.02 9.27739
upperback -2.96678 15.6195 -5.99311
thorax 4.77054 7.96823 -9.1782
lowerneck 4.36649 -8.6617 -13.4656
upperneck 49.4411 -3.87593 -15.2624
head 18.6678 -5.60495 -5.58687
rclavicle 1.31198e-014 -1.74931e-014
rhumerus 67.0434 -4.75633 -73.9309
rradius 146.965
rwrist -64.2018
rhand -0.00993677 -41.1335
rfingers 7.12502
rthumb 25.5809 -69.4356
lclavicle 1.31198e-014 -1.74931e-014
lhumerus -57.9435 -12.6828 81.2741
lradius 34.2825
lwrist 20.2278
lhand -14.1611 -25.2504
lfingers 7.12502
lthumb 11.9737 4.38716
rfemur -15.399 -33.5339 18.7303
rtibia 67.1639
rfoot -47.5761 -37.3915
rtoes 9.55971
lfemur -35.0497 -20.4817 -4.11448
ltibia 23.1401
lfoot 9.59241 -5.88435
ltoes -15.0563
